<svg xmlns="http://www.w3.org/2000/svg" width="760" height="300" viewBox="0 0 760 300">
<rect width="760" height="300" fill="#ffffff"/>
<text x="24" y="34" font-family="Arial, sans-serif" font-size="22" font-weight="700" fill="#111827">DSXU vs raw DeepSeek API A/B</text>
<text x="24" y="58" font-family="Arial, sans-serif" font-size="13" fill="#4b5563">Same fixture tasks: raw API plan-only baseline vs DSXU tool/edit/test workflow.</text>
<text x="24" y="102" font-family="Arial, sans-serif" font-size="13" fill="#18212f">Raw API avg score</text>
<rect x="185" y="88" width="360" height="18" fill="#edf1f7" rx="4"/>
<rect x="185" y="88" width="306" height="18" fill="#9ca3af" rx="4"/>
<text x="501" y="102" font-family="Arial, sans-serif" font-size="12" fill="#18212f">85</text>
<text x="24" y="134" font-family="Arial, sans-serif" font-size="13" fill="#18212f">DSXU avg score</text>
<rect x="185" y="120" width="360" height="18" fill="#edf1f7" rx="4"/>
<rect x="185" y="120" width="357" height="18" fill="#2563eb" rx="4"/>
<text x="552" y="134" font-family="Arial, sans-serif" font-size="12" fill="#18212f">99.3</text>
<text x="24" y="182" font-family="Arial, sans-serif" font-size="13" fill="#18212f">Raw pass rate %</text>
<rect x="185" y="168" width="360" height="18" fill="#edf1f7" rx="4"/>
<rect x="185" y="168" width="0" height="18" fill="#9ca3af" rx="4"/>
<text x="195" y="182" font-family="Arial, sans-serif" font-size="12" fill="#18212f">0</text>
<text x="24" y="214" font-family="Arial, sans-serif" font-size="13" fill="#18212f">DSXU pass rate %</text>
<rect x="185" y="200" width="360" height="18" fill="#edf1f7" rx="4"/>
<rect x="185" y="200" width="360" height="18" fill="#059669" rx="4"/>
<text x="555" y="214" font-family="Arial, sans-serif" font-size="12" fill="#18212f">100</text>
<text x="24" y="260" font-family="Arial, sans-serif" font-size="12" fill="#4b5563">Raw API cannot edit files or run tests; this chart proves workflow lift, not model superiority.</text>
</svg>
